<mxfile host="app.diagrams.net" agent="Mozilla/5.0 (Windows NT 10.0; Win64; x64) AppleWebKit/537.36 (KHTML, like Gecko) Chrome/138.0.0.0 Safari/537.36" version="28.0.6" pages="3">
  <diagram name="Page-1" id="Krn5YRZqsdsxcPJN0GO0">
    <mxGraphModel dx="1349" dy="1799" grid="1" gridSize="10" guides="1" tooltips="1" connect="1" arrows="1" fold="1" page="1" pageScale="1" pageWidth="850" pageHeight="1100" math="0" shadow="0">
      <root>
        <mxCell id="0" />
        <mxCell id="1" parent="0" />
        <mxCell id="KsOijFseOoLC0ubnq5Fn-2" value="register" style="triangle;whiteSpace=wrap;html=1;direction=north;" vertex="1" parent="1">
          <mxGeometry x="470" y="-20" width="110" height="170" as="geometry" />
        </mxCell>
        <mxCell id="KsOijFseOoLC0ubnq5Fn-3" value="" style="shape=trapezoid;perimeter=trapezoidPerimeter;whiteSpace=wrap;html=1;fixedSize=1;" vertex="1" parent="1">
          <mxGeometry x="450" y="150" width="150" height="60" as="geometry" />
        </mxCell>
      </root>
    </mxGraphModel>
  </diagram>
  <diagram id="rDTDtrftiDoanzHwegc-" name="cache-cfg">
    <mxGraphModel dx="1587" dy="822" grid="1" gridSize="10" guides="1" tooltips="1" connect="1" arrows="1" fold="1" page="1" pageScale="1" pageWidth="850" pageHeight="1100" math="0" shadow="0">
      <root>
        <mxCell id="0" />
        <mxCell id="1" parent="0" />
        <mxCell id="UL-zB7isjODbj1ongRN7-18" value="" style="rounded=0;whiteSpace=wrap;html=1;" vertex="1" parent="1">
          <mxGeometry x="175" y="110" width="1025" height="340" as="geometry" />
        </mxCell>
        <mxCell id="48gZoWPmHI8svsrgZxFb-26" value="" style="rounded=0;whiteSpace=wrap;html=1;" vertex="1" parent="1">
          <mxGeometry x="410" y="130" width="180" height="220" as="geometry" />
        </mxCell>
        <mxCell id="48gZoWPmHI8svsrgZxFb-25" value="" style="rounded=0;whiteSpace=wrap;html=1;" vertex="1" parent="1">
          <mxGeometry x="400" y="140" width="180" height="220" as="geometry" />
        </mxCell>
        <mxCell id="48gZoWPmHI8svsrgZxFb-15" value="" style="rounded=0;whiteSpace=wrap;html=1;" vertex="1" parent="1">
          <mxGeometry x="190" y="150" width="180" height="220" as="geometry" />
        </mxCell>
        <mxCell id="48gZoWPmHI8svsrgZxFb-1" value="CPU CORE&lt;div&gt;(X4@3.3GHz)&lt;/div&gt;" style="rounded=1;whiteSpace=wrap;html=1;" vertex="1" parent="1">
          <mxGeometry x="200" y="160" width="160" height="60" as="geometry" />
        </mxCell>
        <mxCell id="48gZoWPmHI8svsrgZxFb-5" value="L1I$&lt;div&gt;(64KB)&lt;/div&gt;" style="rounded=1;whiteSpace=wrap;html=1;" vertex="1" parent="1">
          <mxGeometry x="200" y="250" width="70" height="40" as="geometry" />
        </mxCell>
        <mxCell id="48gZoWPmHI8svsrgZxFb-8" value="L1D$&lt;div&gt;(64KB)&lt;/div&gt;" style="rounded=1;whiteSpace=wrap;html=1;" vertex="1" parent="1">
          <mxGeometry x="290" y="250" width="70" height="40" as="geometry" />
        </mxCell>
        <mxCell id="48gZoWPmHI8svsrgZxFb-9" value="L2$&lt;div&gt;(2MB)&lt;/div&gt;" style="rounded=1;whiteSpace=wrap;html=1;" vertex="1" parent="1">
          <mxGeometry x="200" y="320" width="160" height="40" as="geometry" />
        </mxCell>
        <mxCell id="48gZoWPmHI8svsrgZxFb-10" value="" style="endArrow=classic;startArrow=classic;html=1;rounded=0;entryX=0.22;entryY=0.992;entryDx=0;entryDy=0;entryPerimeter=0;" edge="1" parent="1" source="48gZoWPmHI8svsrgZxFb-5" target="48gZoWPmHI8svsrgZxFb-1">
          <mxGeometry width="50" height="50" relative="1" as="geometry">
            <mxPoint x="400" y="390" as="sourcePoint" />
            <mxPoint x="450" y="340" as="targetPoint" />
          </mxGeometry>
        </mxCell>
        <mxCell id="48gZoWPmHI8svsrgZxFb-11" value="" style="endArrow=classic;startArrow=classic;html=1;rounded=0;entryX=0.779;entryY=0.977;entryDx=0;entryDy=0;entryPerimeter=0;" edge="1" parent="1" target="48gZoWPmHI8svsrgZxFb-1">
          <mxGeometry width="50" height="50" relative="1" as="geometry">
            <mxPoint x="324.71" y="250" as="sourcePoint" />
            <mxPoint x="324.71" y="220" as="targetPoint" />
          </mxGeometry>
        </mxCell>
        <mxCell id="48gZoWPmHI8svsrgZxFb-13" value="" style="endArrow=classic;startArrow=classic;html=1;rounded=0;" edge="1" parent="1" target="48gZoWPmHI8svsrgZxFb-5">
          <mxGeometry width="50" height="50" relative="1" as="geometry">
            <mxPoint x="235" y="319" as="sourcePoint" />
            <mxPoint x="234.66" y="290" as="targetPoint" />
          </mxGeometry>
        </mxCell>
        <mxCell id="48gZoWPmHI8svsrgZxFb-14" value="" style="endArrow=classic;startArrow=classic;html=1;rounded=0;exitX=0.781;exitY=0.011;exitDx=0;exitDy=0;exitPerimeter=0;" edge="1" parent="1" source="48gZoWPmHI8svsrgZxFb-9" target="48gZoWPmHI8svsrgZxFb-8">
          <mxGeometry width="50" height="50" relative="1" as="geometry">
            <mxPoint x="324.86" y="319" as="sourcePoint" />
            <mxPoint x="324.86" y="290" as="targetPoint" />
          </mxGeometry>
        </mxCell>
        <mxCell id="48gZoWPmHI8svsrgZxFb-16" value="" style="rounded=0;whiteSpace=wrap;html=1;" vertex="1" parent="1">
          <mxGeometry x="390" y="150" width="180" height="220" as="geometry" />
        </mxCell>
        <mxCell id="48gZoWPmHI8svsrgZxFb-17" value="CPU CORE&lt;div&gt;(A720@3.15GHz)&lt;/div&gt;" style="rounded=1;whiteSpace=wrap;html=1;" vertex="1" parent="1">
          <mxGeometry x="400" y="160" width="160" height="60" as="geometry" />
        </mxCell>
        <mxCell id="48gZoWPmHI8svsrgZxFb-18" value="L1I$&lt;div&gt;(64KB)&lt;/div&gt;" style="rounded=1;whiteSpace=wrap;html=1;" vertex="1" parent="1">
          <mxGeometry x="400" y="250" width="70" height="40" as="geometry" />
        </mxCell>
        <mxCell id="48gZoWPmHI8svsrgZxFb-19" value="L1D$&lt;div&gt;(64KB)&lt;/div&gt;" style="rounded=1;whiteSpace=wrap;html=1;" vertex="1" parent="1">
          <mxGeometry x="490" y="250" width="70" height="40" as="geometry" />
        </mxCell>
        <mxCell id="48gZoWPmHI8svsrgZxFb-20" value="L2$&lt;div&gt;(512KB)&lt;/div&gt;" style="rounded=1;whiteSpace=wrap;html=1;" vertex="1" parent="1">
          <mxGeometry x="400" y="320" width="160" height="40" as="geometry" />
        </mxCell>
        <mxCell id="48gZoWPmHI8svsrgZxFb-21" value="" style="endArrow=classic;startArrow=classic;html=1;rounded=0;entryX=0.22;entryY=0.992;entryDx=0;entryDy=0;entryPerimeter=0;" edge="1" source="48gZoWPmHI8svsrgZxFb-18" target="48gZoWPmHI8svsrgZxFb-17" parent="1">
          <mxGeometry width="50" height="50" relative="1" as="geometry">
            <mxPoint x="600" y="390" as="sourcePoint" />
            <mxPoint x="650" y="340" as="targetPoint" />
          </mxGeometry>
        </mxCell>
        <mxCell id="48gZoWPmHI8svsrgZxFb-22" value="" style="endArrow=classic;startArrow=classic;html=1;rounded=0;entryX=0.779;entryY=0.977;entryDx=0;entryDy=0;entryPerimeter=0;" edge="1" target="48gZoWPmHI8svsrgZxFb-17" parent="1">
          <mxGeometry width="50" height="50" relative="1" as="geometry">
            <mxPoint x="524.71" y="250" as="sourcePoint" />
            <mxPoint x="524.71" y="220" as="targetPoint" />
          </mxGeometry>
        </mxCell>
        <mxCell id="48gZoWPmHI8svsrgZxFb-23" value="" style="endArrow=classic;startArrow=classic;html=1;rounded=0;" edge="1" target="48gZoWPmHI8svsrgZxFb-18" parent="1">
          <mxGeometry width="50" height="50" relative="1" as="geometry">
            <mxPoint x="435" y="319" as="sourcePoint" />
            <mxPoint x="434.65999999999997" y="290" as="targetPoint" />
          </mxGeometry>
        </mxCell>
        <mxCell id="48gZoWPmHI8svsrgZxFb-24" value="" style="endArrow=classic;startArrow=classic;html=1;rounded=0;exitX=0.781;exitY=0.011;exitDx=0;exitDy=0;exitPerimeter=0;" edge="1" source="48gZoWPmHI8svsrgZxFb-20" target="48gZoWPmHI8svsrgZxFb-19" parent="1">
          <mxGeometry width="50" height="50" relative="1" as="geometry">
            <mxPoint x="524.86" y="319" as="sourcePoint" />
            <mxPoint x="524.86" y="290" as="targetPoint" />
          </mxGeometry>
        </mxCell>
        <mxCell id="48gZoWPmHI8svsrgZxFb-27" value="" style="rounded=0;whiteSpace=wrap;html=1;" vertex="1" parent="1">
          <mxGeometry x="620" y="140" width="180" height="220" as="geometry" />
        </mxCell>
        <mxCell id="48gZoWPmHI8svsrgZxFb-28" value="" style="rounded=0;whiteSpace=wrap;html=1;" vertex="1" parent="1">
          <mxGeometry x="610" y="150" width="180" height="220" as="geometry" />
        </mxCell>
        <mxCell id="48gZoWPmHI8svsrgZxFb-29" value="CPU CORE&lt;div&gt;(A720@2.96GHz)&lt;/div&gt;" style="rounded=1;whiteSpace=wrap;html=1;" vertex="1" parent="1">
          <mxGeometry x="620" y="160" width="160" height="60" as="geometry" />
        </mxCell>
        <mxCell id="48gZoWPmHI8svsrgZxFb-30" value="L1I$&lt;div&gt;(64KB)&lt;/div&gt;" style="rounded=1;whiteSpace=wrap;html=1;" vertex="1" parent="1">
          <mxGeometry x="620" y="250" width="70" height="40" as="geometry" />
        </mxCell>
        <mxCell id="48gZoWPmHI8svsrgZxFb-31" value="L1D$&lt;div&gt;(64KB)&lt;/div&gt;" style="rounded=1;whiteSpace=wrap;html=1;" vertex="1" parent="1">
          <mxGeometry x="710" y="250" width="70" height="40" as="geometry" />
        </mxCell>
        <mxCell id="48gZoWPmHI8svsrgZxFb-32" value="L2$&lt;div&gt;(512KB)&lt;/div&gt;" style="rounded=1;whiteSpace=wrap;html=1;" vertex="1" parent="1">
          <mxGeometry x="620" y="320" width="160" height="40" as="geometry" />
        </mxCell>
        <mxCell id="48gZoWPmHI8svsrgZxFb-33" value="" style="endArrow=classic;startArrow=classic;html=1;rounded=0;entryX=0.22;entryY=0.992;entryDx=0;entryDy=0;entryPerimeter=0;" edge="1" source="48gZoWPmHI8svsrgZxFb-30" target="48gZoWPmHI8svsrgZxFb-29" parent="1">
          <mxGeometry width="50" height="50" relative="1" as="geometry">
            <mxPoint x="820" y="390" as="sourcePoint" />
            <mxPoint x="870" y="340" as="targetPoint" />
          </mxGeometry>
        </mxCell>
        <mxCell id="48gZoWPmHI8svsrgZxFb-34" value="" style="endArrow=classic;startArrow=classic;html=1;rounded=0;entryX=0.779;entryY=0.977;entryDx=0;entryDy=0;entryPerimeter=0;" edge="1" target="48gZoWPmHI8svsrgZxFb-29" parent="1">
          <mxGeometry width="50" height="50" relative="1" as="geometry">
            <mxPoint x="744.71" y="250" as="sourcePoint" />
            <mxPoint x="744.71" y="220" as="targetPoint" />
          </mxGeometry>
        </mxCell>
        <mxCell id="48gZoWPmHI8svsrgZxFb-35" value="" style="endArrow=classic;startArrow=classic;html=1;rounded=0;" edge="1" target="48gZoWPmHI8svsrgZxFb-30" parent="1">
          <mxGeometry width="50" height="50" relative="1" as="geometry">
            <mxPoint x="655" y="319" as="sourcePoint" />
            <mxPoint x="654.66" y="290" as="targetPoint" />
          </mxGeometry>
        </mxCell>
        <mxCell id="48gZoWPmHI8svsrgZxFb-36" value="" style="endArrow=classic;startArrow=classic;html=1;rounded=0;exitX=0.781;exitY=0.011;exitDx=0;exitDy=0;exitPerimeter=0;" edge="1" source="48gZoWPmHI8svsrgZxFb-32" target="48gZoWPmHI8svsrgZxFb-31" parent="1">
          <mxGeometry width="50" height="50" relative="1" as="geometry">
            <mxPoint x="744.86" y="319" as="sourcePoint" />
            <mxPoint x="744.86" y="290" as="targetPoint" />
          </mxGeometry>
        </mxCell>
        <mxCell id="48gZoWPmHI8svsrgZxFb-38" value="" style="rounded=0;whiteSpace=wrap;html=1;" vertex="1" parent="1">
          <mxGeometry x="820" y="150" width="180" height="220" as="geometry" />
        </mxCell>
        <mxCell id="48gZoWPmHI8svsrgZxFb-39" value="CPU CORE&lt;div&gt;(A520@2.3GHz)&lt;/div&gt;" style="rounded=1;whiteSpace=wrap;html=1;" vertex="1" parent="1">
          <mxGeometry x="830" y="160" width="160" height="60" as="geometry" />
        </mxCell>
        <mxCell id="48gZoWPmHI8svsrgZxFb-40" value="L1I$&lt;div&gt;(64KB)&lt;/div&gt;" style="rounded=1;whiteSpace=wrap;html=1;" vertex="1" parent="1">
          <mxGeometry x="830" y="250" width="70" height="40" as="geometry" />
        </mxCell>
        <mxCell id="48gZoWPmHI8svsrgZxFb-41" value="L1D$&lt;div&gt;(64KB)&lt;/div&gt;" style="rounded=1;whiteSpace=wrap;html=1;" vertex="1" parent="1">
          <mxGeometry x="920" y="250" width="70" height="40" as="geometry" />
        </mxCell>
        <mxCell id="48gZoWPmHI8svsrgZxFb-43" value="" style="endArrow=classic;startArrow=classic;html=1;rounded=0;entryX=0.22;entryY=0.992;entryDx=0;entryDy=0;entryPerimeter=0;" edge="1" source="48gZoWPmHI8svsrgZxFb-40" target="48gZoWPmHI8svsrgZxFb-39" parent="1">
          <mxGeometry width="50" height="50" relative="1" as="geometry">
            <mxPoint x="1030" y="390" as="sourcePoint" />
            <mxPoint x="1080" y="340" as="targetPoint" />
          </mxGeometry>
        </mxCell>
        <mxCell id="48gZoWPmHI8svsrgZxFb-44" value="" style="endArrow=classic;startArrow=classic;html=1;rounded=0;entryX=0.779;entryY=0.977;entryDx=0;entryDy=0;entryPerimeter=0;" edge="1" target="48gZoWPmHI8svsrgZxFb-39" parent="1">
          <mxGeometry width="50" height="50" relative="1" as="geometry">
            <mxPoint x="954.71" y="250" as="sourcePoint" />
            <mxPoint x="954.71" y="220" as="targetPoint" />
          </mxGeometry>
        </mxCell>
        <mxCell id="48gZoWPmHI8svsrgZxFb-45" value="" style="endArrow=classic;startArrow=classic;html=1;rounded=0;" edge="1" target="48gZoWPmHI8svsrgZxFb-40" parent="1">
          <mxGeometry width="50" height="50" relative="1" as="geometry">
            <mxPoint x="865" y="319" as="sourcePoint" />
            <mxPoint x="864.66" y="290" as="targetPoint" />
          </mxGeometry>
        </mxCell>
        <mxCell id="48gZoWPmHI8svsrgZxFb-46" value="" style="endArrow=classic;startArrow=classic;html=1;rounded=0;exitX=0.358;exitY=0.029;exitDx=0;exitDy=0;exitPerimeter=0;" edge="1" source="48gZoWPmHI8svsrgZxFb-42" target="48gZoWPmHI8svsrgZxFb-41" parent="1">
          <mxGeometry width="50" height="50" relative="1" as="geometry">
            <mxPoint x="954.86" y="319" as="sourcePoint" />
            <mxPoint x="954.86" y="290" as="targetPoint" />
          </mxGeometry>
        </mxCell>
        <mxCell id="48gZoWPmHI8svsrgZxFb-47" value="" style="rounded=0;whiteSpace=wrap;html=1;" vertex="1" parent="1">
          <mxGeometry x="1010" y="150" width="180" height="220" as="geometry" />
        </mxCell>
        <mxCell id="48gZoWPmHI8svsrgZxFb-48" value="CPU CORE&lt;div&gt;(A520@2.3GHz)&lt;/div&gt;" style="rounded=1;whiteSpace=wrap;html=1;" vertex="1" parent="1">
          <mxGeometry x="1020" y="160" width="160" height="60" as="geometry" />
        </mxCell>
        <mxCell id="48gZoWPmHI8svsrgZxFb-49" value="L1I$&lt;div&gt;(64KB)&lt;/div&gt;" style="rounded=1;whiteSpace=wrap;html=1;" vertex="1" parent="1">
          <mxGeometry x="1020" y="250" width="70" height="40" as="geometry" />
        </mxCell>
        <mxCell id="48gZoWPmHI8svsrgZxFb-50" value="L1D$&lt;div&gt;(64KB)&lt;/div&gt;" style="rounded=1;whiteSpace=wrap;html=1;" vertex="1" parent="1">
          <mxGeometry x="1110" y="250" width="70" height="40" as="geometry" />
        </mxCell>
        <mxCell id="48gZoWPmHI8svsrgZxFb-52" value="" style="endArrow=classic;startArrow=classic;html=1;rounded=0;entryX=0.22;entryY=0.992;entryDx=0;entryDy=0;entryPerimeter=0;" edge="1" source="48gZoWPmHI8svsrgZxFb-49" target="48gZoWPmHI8svsrgZxFb-48" parent="1">
          <mxGeometry width="50" height="50" relative="1" as="geometry">
            <mxPoint x="1220" y="390" as="sourcePoint" />
            <mxPoint x="1270" y="340" as="targetPoint" />
          </mxGeometry>
        </mxCell>
        <mxCell id="48gZoWPmHI8svsrgZxFb-53" value="" style="endArrow=classic;startArrow=classic;html=1;rounded=0;entryX=0.779;entryY=0.977;entryDx=0;entryDy=0;entryPerimeter=0;" edge="1" target="48gZoWPmHI8svsrgZxFb-48" parent="1">
          <mxGeometry width="50" height="50" relative="1" as="geometry">
            <mxPoint x="1144.71" y="250" as="sourcePoint" />
            <mxPoint x="1144.71" y="220" as="targetPoint" />
          </mxGeometry>
        </mxCell>
        <mxCell id="48gZoWPmHI8svsrgZxFb-54" value="" style="endArrow=classic;startArrow=classic;html=1;rounded=0;" edge="1" target="48gZoWPmHI8svsrgZxFb-49" parent="1">
          <mxGeometry width="50" height="50" relative="1" as="geometry">
            <mxPoint x="1055" y="319" as="sourcePoint" />
            <mxPoint x="1054.6599999999999" y="290" as="targetPoint" />
          </mxGeometry>
        </mxCell>
        <mxCell id="48gZoWPmHI8svsrgZxFb-55" value="" style="endArrow=classic;startArrow=classic;html=1;rounded=0;exitX=0.781;exitY=0.011;exitDx=0;exitDy=0;exitPerimeter=0;" edge="1" target="48gZoWPmHI8svsrgZxFb-50" parent="1">
          <mxGeometry width="50" height="50" relative="1" as="geometry">
            <mxPoint x="1144.9599999999998" y="320.43999999999994" as="sourcePoint" />
            <mxPoint x="1144.8600000000001" y="290" as="targetPoint" />
          </mxGeometry>
        </mxCell>
        <mxCell id="48gZoWPmHI8svsrgZxFb-42" value="L2$&lt;div&gt;(share 512KB)&lt;/div&gt;" style="rounded=1;whiteSpace=wrap;html=1;" vertex="1" parent="1">
          <mxGeometry x="830" y="320" width="350" height="40" as="geometry" />
        </mxCell>
        <mxCell id="48gZoWPmHI8svsrgZxFb-56" value="L3$&lt;div&gt;(12MB)&lt;/div&gt;" style="rounded=0;whiteSpace=wrap;html=1;" vertex="1" parent="1">
          <mxGeometry x="190" y="400" width="1000" height="40" as="geometry" />
        </mxCell>
        <mxCell id="48gZoWPmHI8svsrgZxFb-58" value="SLC (System Level Cache)&lt;br&gt;&lt;div&gt;(6MB)&lt;/div&gt;" style="rounded=0;whiteSpace=wrap;html=1;" vertex="1" parent="1">
          <mxGeometry x="180" y="470" width="1020" height="40" as="geometry" />
        </mxCell>
        <mxCell id="48gZoWPmHI8svsrgZxFb-59" value="LPDDR5X(Main Memory)&lt;br&gt;&lt;div&gt;(12/16GB)&lt;/div&gt;" style="rounded=0;whiteSpace=wrap;html=1;" vertex="1" parent="1">
          <mxGeometry x="180" y="540" width="1020" height="40" as="geometry" />
        </mxCell>
        <mxCell id="UL-zB7isjODbj1ongRN7-4" value="" style="endArrow=classic;startArrow=classic;html=1;rounded=0;exitX=0.091;exitY=-0.019;exitDx=0;exitDy=0;exitPerimeter=0;" edge="1" parent="1" source="48gZoWPmHI8svsrgZxFb-56">
          <mxGeometry width="50" height="50" relative="1" as="geometry">
            <mxPoint x="280" y="392" as="sourcePoint" />
            <mxPoint x="280" y="370" as="targetPoint" />
          </mxGeometry>
        </mxCell>
        <mxCell id="UL-zB7isjODbj1ongRN7-5" value="" style="endArrow=classic;startArrow=classic;html=1;rounded=0;exitX=0.29;exitY=0.043;exitDx=0;exitDy=0;exitPerimeter=0;" edge="1" parent="1" source="48gZoWPmHI8svsrgZxFb-56">
          <mxGeometry width="50" height="50" relative="1" as="geometry">
            <mxPoint x="479.8" y="390" as="sourcePoint" />
            <mxPoint x="479.8" y="368" as="targetPoint" />
          </mxGeometry>
        </mxCell>
        <mxCell id="UL-zB7isjODbj1ongRN7-7" value="" style="endArrow=classic;startArrow=classic;html=1;rounded=0;exitX=0.386;exitY=0;exitDx=0;exitDy=0;exitPerimeter=0;" edge="1" parent="1" source="48gZoWPmHI8svsrgZxFb-56">
          <mxGeometry width="50" height="50" relative="1" as="geometry">
            <mxPoint x="510" y="400" as="sourcePoint" />
            <mxPoint x="576" y="360" as="targetPoint" />
          </mxGeometry>
        </mxCell>
        <mxCell id="UL-zB7isjODbj1ongRN7-8" value="" style="endArrow=classic;startArrow=classic;html=1;rounded=0;exitX=0.397;exitY=-0.001;exitDx=0;exitDy=0;exitPerimeter=0;" edge="1" parent="1" source="48gZoWPmHI8svsrgZxFb-56">
          <mxGeometry width="50" height="50" relative="1" as="geometry">
            <mxPoint x="530" y="400" as="sourcePoint" />
            <mxPoint x="586" y="350" as="targetPoint" />
          </mxGeometry>
        </mxCell>
        <mxCell id="UL-zB7isjODbj1ongRN7-9" value="" style="endArrow=classic;startArrow=classic;html=1;rounded=0;entryX=0.5;entryY=1;entryDx=0;entryDy=0;exitX=0.51;exitY=-0.014;exitDx=0;exitDy=0;exitPerimeter=0;" edge="1" parent="1" source="48gZoWPmHI8svsrgZxFb-56" target="48gZoWPmHI8svsrgZxFb-28">
          <mxGeometry width="50" height="50" relative="1" as="geometry">
            <mxPoint x="690" y="380" as="sourcePoint" />
            <mxPoint x="740" y="330" as="targetPoint" />
          </mxGeometry>
        </mxCell>
        <mxCell id="UL-zB7isjODbj1ongRN7-10" value="" style="endArrow=classic;startArrow=classic;html=1;rounded=0;exitX=0.72;exitY=0.037;exitDx=0;exitDy=0;exitPerimeter=0;entryX=0.5;entryY=1;entryDx=0;entryDy=0;" edge="1" parent="1" source="48gZoWPmHI8svsrgZxFb-56" target="48gZoWPmHI8svsrgZxFb-38">
          <mxGeometry width="50" height="50" relative="1" as="geometry">
            <mxPoint x="770" y="390" as="sourcePoint" />
            <mxPoint x="820" y="340" as="targetPoint" />
          </mxGeometry>
        </mxCell>
        <mxCell id="UL-zB7isjODbj1ongRN7-11" value="" style="endArrow=classic;startArrow=classic;html=1;rounded=0;entryX=0.976;entryY=0.997;entryDx=0;entryDy=0;entryPerimeter=0;exitX=0.605;exitY=0.043;exitDx=0;exitDy=0;exitPerimeter=0;" edge="1" parent="1" source="48gZoWPmHI8svsrgZxFb-56" target="48gZoWPmHI8svsrgZxFb-27">
          <mxGeometry width="50" height="50" relative="1" as="geometry">
            <mxPoint x="890" y="450" as="sourcePoint" />
            <mxPoint x="940" y="400" as="targetPoint" />
          </mxGeometry>
        </mxCell>
        <mxCell id="UL-zB7isjODbj1ongRN7-12" value="" style="endArrow=classic;startArrow=classic;html=1;rounded=0;entryX=0.5;entryY=1;entryDx=0;entryDy=0;" edge="1" parent="1" target="48gZoWPmHI8svsrgZxFb-47">
          <mxGeometry width="50" height="50" relative="1" as="geometry">
            <mxPoint x="1100" y="400" as="sourcePoint" />
            <mxPoint x="940" y="400" as="targetPoint" />
          </mxGeometry>
        </mxCell>
        <mxCell id="UL-zB7isjODbj1ongRN7-16" value="" style="endArrow=classic;startArrow=classic;html=1;rounded=0;exitX=0.5;exitY=0;exitDx=0;exitDy=0;entryX=0.5;entryY=1;entryDx=0;entryDy=0;" edge="1" parent="1" source="48gZoWPmHI8svsrgZxFb-58" target="48gZoWPmHI8svsrgZxFb-56">
          <mxGeometry width="50" height="50" relative="1" as="geometry">
            <mxPoint x="750" y="460" as="sourcePoint" />
            <mxPoint x="800" y="410" as="targetPoint" />
          </mxGeometry>
        </mxCell>
        <mxCell id="UL-zB7isjODbj1ongRN7-17" value="" style="endArrow=classic;startArrow=classic;html=1;rounded=0;entryX=0.5;entryY=0;entryDx=0;entryDy=0;exitX=0.5;exitY=1;exitDx=0;exitDy=0;" edge="1" parent="1" source="48gZoWPmHI8svsrgZxFb-58" target="48gZoWPmHI8svsrgZxFb-59">
          <mxGeometry width="50" height="50" relative="1" as="geometry">
            <mxPoint x="750" y="460" as="sourcePoint" />
            <mxPoint x="800" y="410" as="targetPoint" />
          </mxGeometry>
        </mxCell>
      </root>
    </mxGraphModel>
  </diagram>
  <diagram id="gpoBpqr3ypNzgzoxuyU4" name="Page-3">
    <mxGraphModel dx="771" dy="399" grid="1" gridSize="10" guides="1" tooltips="1" connect="1" arrows="1" fold="1" page="1" pageScale="1" pageWidth="850" pageHeight="1100" math="0" shadow="0">
      <root>
        <mxCell id="0" />
        <mxCell id="1" parent="0" />
        <mxCell id="0OY0FQUfaeUlnDmc-vhA-41" value="" style="rounded=0;whiteSpace=wrap;html=1;" vertex="1" parent="1">
          <mxGeometry x="170" y="330" width="300" height="230" as="geometry" />
        </mxCell>
        <mxCell id="0OY0FQUfaeUlnDmc-vhA-40" value="" style="rounded=0;whiteSpace=wrap;html=1;" vertex="1" parent="1">
          <mxGeometry x="150" y="310" width="300" height="230" as="geometry" />
        </mxCell>
        <mxCell id="0OY0FQUfaeUlnDmc-vhA-39" value="" style="rounded=0;whiteSpace=wrap;html=1;" vertex="1" parent="1">
          <mxGeometry x="130" y="290" width="300" height="230" as="geometry" />
        </mxCell>
        <mxCell id="0OY0FQUfaeUlnDmc-vhA-38" value="" style="rounded=0;whiteSpace=wrap;html=1;" vertex="1" parent="1">
          <mxGeometry x="110" y="270" width="300" height="230" as="geometry" />
        </mxCell>
        <mxCell id="0OY0FQUfaeUlnDmc-vhA-1" value="V" style="rounded=0;whiteSpace=wrap;html=1;" vertex="1" parent="1">
          <mxGeometry x="120" y="280" width="40" height="30" as="geometry" />
        </mxCell>
        <mxCell id="0OY0FQUfaeUlnDmc-vhA-2" value="Tag" style="rounded=0;whiteSpace=wrap;html=1;fillColor=#66B2FF;" vertex="1" parent="1">
          <mxGeometry x="160" y="280" width="70" height="30" as="geometry" />
        </mxCell>
        <mxCell id="0OY0FQUfaeUlnDmc-vhA-3" value="" style="endArrow=none;html=1;rounded=0;exitX=1;exitY=0.5;exitDx=0;exitDy=0;entryX=0;entryY=0.5;entryDx=0;entryDy=0;" edge="1" parent="1" source="0OY0FQUfaeUlnDmc-vhA-2" target="0OY0FQUfaeUlnDmc-vhA-5">
          <mxGeometry width="50" height="50" relative="1" as="geometry">
            <mxPoint x="400" y="390" as="sourcePoint" />
            <mxPoint x="280" y="295" as="targetPoint" />
          </mxGeometry>
        </mxCell>
        <mxCell id="0OY0FQUfaeUlnDmc-vhA-5" value="Cache Line 0" style="rounded=0;whiteSpace=wrap;html=1;fillColor=#CCE5FF;" vertex="1" parent="1">
          <mxGeometry x="260" y="280" width="100" height="30" as="geometry" />
        </mxCell>
        <mxCell id="0OY0FQUfaeUlnDmc-vhA-6" value="D" style="rounded=0;whiteSpace=wrap;html=1;" vertex="1" parent="1">
          <mxGeometry x="360" y="280" width="40" height="30" as="geometry" />
        </mxCell>
        <mxCell id="0OY0FQUfaeUlnDmc-vhA-7" value="V" style="rounded=0;whiteSpace=wrap;html=1;" vertex="1" parent="1">
          <mxGeometry x="120" y="310" width="40" height="30" as="geometry" />
        </mxCell>
        <mxCell id="0OY0FQUfaeUlnDmc-vhA-8" value="Tag" style="rounded=0;whiteSpace=wrap;html=1;fillColor=#66B2FF;" vertex="1" parent="1">
          <mxGeometry x="160" y="310" width="70" height="30" as="geometry" />
        </mxCell>
        <mxCell id="0OY0FQUfaeUlnDmc-vhA-9" value="" style="endArrow=none;html=1;rounded=0;exitX=1;exitY=0.5;exitDx=0;exitDy=0;entryX=0;entryY=0.5;entryDx=0;entryDy=0;" edge="1" source="0OY0FQUfaeUlnDmc-vhA-8" target="0OY0FQUfaeUlnDmc-vhA-10" parent="1">
          <mxGeometry width="50" height="50" relative="1" as="geometry">
            <mxPoint x="400" y="420" as="sourcePoint" />
            <mxPoint x="280" y="325" as="targetPoint" />
          </mxGeometry>
        </mxCell>
        <mxCell id="0OY0FQUfaeUlnDmc-vhA-10" value="Cache Line 1" style="rounded=0;whiteSpace=wrap;html=1;fillColor=#CCE5FF;" vertex="1" parent="1">
          <mxGeometry x="260" y="310" width="100" height="30" as="geometry" />
        </mxCell>
        <mxCell id="0OY0FQUfaeUlnDmc-vhA-11" value="D" style="rounded=0;whiteSpace=wrap;html=1;" vertex="1" parent="1">
          <mxGeometry x="360" y="310" width="40" height="30" as="geometry" />
        </mxCell>
        <mxCell id="0OY0FQUfaeUlnDmc-vhA-12" value="V" style="rounded=0;whiteSpace=wrap;html=1;" vertex="1" parent="1">
          <mxGeometry x="120" y="340" width="40" height="30" as="geometry" />
        </mxCell>
        <mxCell id="0OY0FQUfaeUlnDmc-vhA-13" value="Tag" style="rounded=0;whiteSpace=wrap;html=1;fillColor=#66B2FF;" vertex="1" parent="1">
          <mxGeometry x="160" y="340" width="70" height="30" as="geometry" />
        </mxCell>
        <mxCell id="0OY0FQUfaeUlnDmc-vhA-14" value="" style="endArrow=none;html=1;rounded=0;exitX=1;exitY=0.5;exitDx=0;exitDy=0;entryX=0;entryY=0.5;entryDx=0;entryDy=0;" edge="1" source="0OY0FQUfaeUlnDmc-vhA-13" target="0OY0FQUfaeUlnDmc-vhA-15" parent="1">
          <mxGeometry width="50" height="50" relative="1" as="geometry">
            <mxPoint x="400" y="450" as="sourcePoint" />
            <mxPoint x="280" y="355" as="targetPoint" />
          </mxGeometry>
        </mxCell>
        <mxCell id="0OY0FQUfaeUlnDmc-vhA-15" value="Cache Line 2" style="rounded=0;whiteSpace=wrap;html=1;fillColor=#CCE5FF;" vertex="1" parent="1">
          <mxGeometry x="260" y="340" width="100" height="30" as="geometry" />
        </mxCell>
        <mxCell id="0OY0FQUfaeUlnDmc-vhA-16" value="D" style="rounded=0;whiteSpace=wrap;html=1;" vertex="1" parent="1">
          <mxGeometry x="360" y="340" width="40" height="30" as="geometry" />
        </mxCell>
        <mxCell id="0OY0FQUfaeUlnDmc-vhA-17" value="V" style="rounded=0;whiteSpace=wrap;html=1;" vertex="1" parent="1">
          <mxGeometry x="120" y="370" width="40" height="30" as="geometry" />
        </mxCell>
        <mxCell id="0OY0FQUfaeUlnDmc-vhA-18" value="Tag" style="rounded=0;whiteSpace=wrap;html=1;fillColor=#66B2FF;" vertex="1" parent="1">
          <mxGeometry x="160" y="370" width="70" height="30" as="geometry" />
        </mxCell>
        <mxCell id="0OY0FQUfaeUlnDmc-vhA-19" value="" style="endArrow=none;html=1;rounded=0;exitX=1;exitY=0.5;exitDx=0;exitDy=0;entryX=0;entryY=0.5;entryDx=0;entryDy=0;" edge="1" source="0OY0FQUfaeUlnDmc-vhA-18" target="0OY0FQUfaeUlnDmc-vhA-20" parent="1">
          <mxGeometry width="50" height="50" relative="1" as="geometry">
            <mxPoint x="400" y="480" as="sourcePoint" />
            <mxPoint x="280" y="385" as="targetPoint" />
          </mxGeometry>
        </mxCell>
        <mxCell id="0OY0FQUfaeUlnDmc-vhA-20" value="Cache Line 3" style="rounded=0;whiteSpace=wrap;html=1;fillColor=#CCE5FF;" vertex="1" parent="1">
          <mxGeometry x="260" y="370" width="100" height="30" as="geometry" />
        </mxCell>
        <mxCell id="0OY0FQUfaeUlnDmc-vhA-21" value="D" style="rounded=0;whiteSpace=wrap;html=1;" vertex="1" parent="1">
          <mxGeometry x="360" y="370" width="40" height="30" as="geometry" />
        </mxCell>
        <mxCell id="0OY0FQUfaeUlnDmc-vhA-22" value="V" style="rounded=0;whiteSpace=wrap;html=1;" vertex="1" parent="1">
          <mxGeometry x="120" y="430" width="40" height="30" as="geometry" />
        </mxCell>
        <mxCell id="0OY0FQUfaeUlnDmc-vhA-23" value="Tag" style="rounded=0;whiteSpace=wrap;html=1;fillColor=#66B2FF;" vertex="1" parent="1">
          <mxGeometry x="160" y="430" width="70" height="30" as="geometry" />
        </mxCell>
        <mxCell id="0OY0FQUfaeUlnDmc-vhA-24" value="" style="endArrow=none;html=1;rounded=0;exitX=1;exitY=0.5;exitDx=0;exitDy=0;entryX=0;entryY=0.5;entryDx=0;entryDy=0;" edge="1" source="0OY0FQUfaeUlnDmc-vhA-23" target="0OY0FQUfaeUlnDmc-vhA-25" parent="1">
          <mxGeometry width="50" height="50" relative="1" as="geometry">
            <mxPoint x="400" y="540" as="sourcePoint" />
            <mxPoint x="280" y="445" as="targetPoint" />
          </mxGeometry>
        </mxCell>
        <mxCell id="0OY0FQUfaeUlnDmc-vhA-25" value="Cache Line 254" style="rounded=0;whiteSpace=wrap;html=1;fillColor=#CCE5FF;" vertex="1" parent="1">
          <mxGeometry x="260" y="430" width="100" height="30" as="geometry" />
        </mxCell>
        <mxCell id="0OY0FQUfaeUlnDmc-vhA-26" value="D" style="rounded=0;whiteSpace=wrap;html=1;" vertex="1" parent="1">
          <mxGeometry x="360" y="430" width="40" height="30" as="geometry" />
        </mxCell>
        <mxCell id="0OY0FQUfaeUlnDmc-vhA-27" value="V" style="rounded=0;whiteSpace=wrap;html=1;" vertex="1" parent="1">
          <mxGeometry x="120" y="460" width="40" height="30" as="geometry" />
        </mxCell>
        <mxCell id="0OY0FQUfaeUlnDmc-vhA-28" value="Tag" style="rounded=0;whiteSpace=wrap;html=1;fillColor=#66B2FF;" vertex="1" parent="1">
          <mxGeometry x="160" y="460" width="70" height="30" as="geometry" />
        </mxCell>
        <mxCell id="0OY0FQUfaeUlnDmc-vhA-29" value="" style="endArrow=none;html=1;rounded=0;exitX=1;exitY=0.5;exitDx=0;exitDy=0;entryX=0;entryY=0.5;entryDx=0;entryDy=0;" edge="1" source="0OY0FQUfaeUlnDmc-vhA-28" target="0OY0FQUfaeUlnDmc-vhA-30" parent="1">
          <mxGeometry width="50" height="50" relative="1" as="geometry">
            <mxPoint x="400" y="570" as="sourcePoint" />
            <mxPoint x="280" y="475" as="targetPoint" />
          </mxGeometry>
        </mxCell>
        <mxCell id="0OY0FQUfaeUlnDmc-vhA-30" value="Cache Line 255" style="rounded=0;whiteSpace=wrap;html=1;fillColor=#CCE5FF;" vertex="1" parent="1">
          <mxGeometry x="260" y="460" width="100" height="30" as="geometry" />
        </mxCell>
        <mxCell id="0OY0FQUfaeUlnDmc-vhA-31" value="D" style="rounded=0;whiteSpace=wrap;html=1;" vertex="1" parent="1">
          <mxGeometry x="360" y="460" width="40" height="30" as="geometry" />
        </mxCell>
        <mxCell id="0OY0FQUfaeUlnDmc-vhA-33" value="" style="endArrow=none;dashed=1;html=1;rounded=0;" edge="1" parent="1" target="0OY0FQUfaeUlnDmc-vhA-17">
          <mxGeometry width="50" height="50" relative="1" as="geometry">
            <mxPoint x="139.70999999999998" y="430" as="sourcePoint" />
            <mxPoint x="139.70999999999998" y="400" as="targetPoint" />
          </mxGeometry>
        </mxCell>
        <mxCell id="0OY0FQUfaeUlnDmc-vhA-35" value="" style="endArrow=none;dashed=1;html=1;rounded=0;entryX=0.5;entryY=1;entryDx=0;entryDy=0;exitX=0.5;exitY=0;exitDx=0;exitDy=0;" edge="1" parent="1" source="0OY0FQUfaeUlnDmc-vhA-23" target="0OY0FQUfaeUlnDmc-vhA-18">
          <mxGeometry width="50" height="50" relative="1" as="geometry">
            <mxPoint x="430" y="430" as="sourcePoint" />
            <mxPoint x="480" y="380" as="targetPoint" />
          </mxGeometry>
        </mxCell>
        <mxCell id="0OY0FQUfaeUlnDmc-vhA-36" value="" style="endArrow=none;dashed=1;html=1;rounded=0;entryX=0.5;entryY=1;entryDx=0;entryDy=0;exitX=0.5;exitY=0;exitDx=0;exitDy=0;" edge="1" parent="1" source="0OY0FQUfaeUlnDmc-vhA-25" target="0OY0FQUfaeUlnDmc-vhA-20">
          <mxGeometry width="50" height="50" relative="1" as="geometry">
            <mxPoint x="220" y="430" as="sourcePoint" />
            <mxPoint x="220.29000000000002" y="400" as="targetPoint" />
          </mxGeometry>
        </mxCell>
        <mxCell id="0OY0FQUfaeUlnDmc-vhA-37" value="" style="endArrow=none;dashed=1;html=1;rounded=0;entryX=0.5;entryY=1;entryDx=0;entryDy=0;exitX=0.5;exitY=0;exitDx=0;exitDy=0;" edge="1" parent="1" source="0OY0FQUfaeUlnDmc-vhA-26" target="0OY0FQUfaeUlnDmc-vhA-21">
          <mxGeometry width="50" height="50" relative="1" as="geometry">
            <mxPoint x="295.29" y="430" as="sourcePoint" />
            <mxPoint x="295.29" y="400" as="targetPoint" />
          </mxGeometry>
        </mxCell>
        <mxCell id="0OY0FQUfaeUlnDmc-vhA-42" value="63" style="rounded=0;whiteSpace=wrap;html=1;fillColor=#CCE5FF;" vertex="1" parent="1">
          <mxGeometry x="490" y="280" width="20" height="30" as="geometry" />
        </mxCell>
        <mxCell id="0OY0FQUfaeUlnDmc-vhA-43" value="62" style="rounded=0;whiteSpace=wrap;html=1;fillColor=#CCE5FF;" vertex="1" parent="1">
          <mxGeometry x="510" y="280" width="20" height="30" as="geometry" />
        </mxCell>
        <mxCell id="0OY0FQUfaeUlnDmc-vhA-44" value="..." style="rounded=0;whiteSpace=wrap;html=1;fillColor=#CCE5FF;" vertex="1" parent="1">
          <mxGeometry x="530" y="280" width="20" height="30" as="geometry" />
        </mxCell>
        <mxCell id="0OY0FQUfaeUlnDmc-vhA-45" value="..." style="rounded=0;whiteSpace=wrap;html=1;fillColor=#CCE5FF;" vertex="1" parent="1">
          <mxGeometry x="550" y="280" width="20" height="30" as="geometry" />
        </mxCell>
        <mxCell id="0OY0FQUfaeUlnDmc-vhA-46" value="1" style="rounded=0;whiteSpace=wrap;html=1;fillColor=#CCE5FF;" vertex="1" parent="1">
          <mxGeometry x="570" y="280" width="20" height="30" as="geometry" />
        </mxCell>
        <mxCell id="0OY0FQUfaeUlnDmc-vhA-47" value="0" style="rounded=0;whiteSpace=wrap;html=1;fillColor=#CCE5FF;" vertex="1" parent="1">
          <mxGeometry x="590" y="280" width="20" height="30" as="geometry" />
        </mxCell>
        <mxCell id="0OY0FQUfaeUlnDmc-vhA-48" value="D" style="rounded=0;whiteSpace=wrap;html=1;" vertex="1" parent="1">
          <mxGeometry x="610" y="280" width="20" height="30" as="geometry" />
        </mxCell>
        <mxCell id="0OY0FQUfaeUlnDmc-vhA-49" value="Tag&lt;div&gt;(26bit)&lt;/div&gt;" style="rounded=0;whiteSpace=wrap;html=1;fillColor=#66B2FF;" vertex="1" parent="1">
          <mxGeometry x="170" y="120" width="180" height="30" as="geometry" />
        </mxCell>
        <mxCell id="0OY0FQUfaeUlnDmc-vhA-51" value="Set(Index)&lt;div&gt;(8bit)&lt;/div&gt;" style="rounded=0;whiteSpace=wrap;html=1;" vertex="1" parent="1">
          <mxGeometry x="350" y="120" width="150" height="30" as="geometry" />
        </mxCell>
        <mxCell id="0OY0FQUfaeUlnDmc-vhA-52" value="offset&lt;div&gt;(6bit)&lt;/div&gt;" style="rounded=0;whiteSpace=wrap;html=1;" vertex="1" parent="1">
          <mxGeometry x="490" y="120" width="80" height="30" as="geometry" />
        </mxCell>
        <mxCell id="0OY0FQUfaeUlnDmc-vhA-53" value="0" style="text;html=1;align=center;verticalAlign=middle;whiteSpace=wrap;rounded=0;" vertex="1" parent="1">
          <mxGeometry x="560" y="150" width="20" height="30" as="geometry" />
        </mxCell>
        <mxCell id="0OY0FQUfaeUlnDmc-vhA-54" value="5" style="text;html=1;align=center;verticalAlign=middle;whiteSpace=wrap;rounded=0;" vertex="1" parent="1">
          <mxGeometry x="490" y="150" width="20" height="30" as="geometry" />
        </mxCell>
        <mxCell id="0OY0FQUfaeUlnDmc-vhA-55" value="6" style="text;html=1;align=center;verticalAlign=middle;whiteSpace=wrap;rounded=0;" vertex="1" parent="1">
          <mxGeometry x="470" y="150" width="20" height="30" as="geometry" />
        </mxCell>
        <mxCell id="0OY0FQUfaeUlnDmc-vhA-56" value="13" style="text;html=1;align=center;verticalAlign=middle;whiteSpace=wrap;rounded=0;" vertex="1" parent="1">
          <mxGeometry x="350" y="150" width="20" height="30" as="geometry" />
        </mxCell>
        <mxCell id="0OY0FQUfaeUlnDmc-vhA-57" value="14" style="text;html=1;align=center;verticalAlign=middle;whiteSpace=wrap;rounded=0;" vertex="1" parent="1">
          <mxGeometry x="330" y="150" width="20" height="30" as="geometry" />
        </mxCell>
        <mxCell id="0OY0FQUfaeUlnDmc-vhA-58" value="39" style="text;html=1;align=center;verticalAlign=middle;whiteSpace=wrap;rounded=0;" vertex="1" parent="1">
          <mxGeometry x="170" y="150" width="20" height="30" as="geometry" />
        </mxCell>
        <mxCell id="0OY0FQUfaeUlnDmc-vhA-59" value="" style="endArrow=classic;html=1;rounded=0;exitX=0.62;exitY=1.047;exitDx=0;exitDy=0;exitPerimeter=0;entryX=0.5;entryY=0;entryDx=0;entryDy=0;" edge="1" parent="1" source="0OY0FQUfaeUlnDmc-vhA-52" target="0OY0FQUfaeUlnDmc-vhA-44">
          <mxGeometry width="50" height="50" relative="1" as="geometry">
            <mxPoint x="510" y="350" as="sourcePoint" />
            <mxPoint x="560" y="300" as="targetPoint" />
          </mxGeometry>
        </mxCell>
        <mxCell id="0OY0FQUfaeUlnDmc-vhA-62" value="" style="shape=partialRectangle;whiteSpace=wrap;html=1;top=0;left=0;fillColor=none;" vertex="1" parent="1">
          <mxGeometry x="400" y="150" width="40" height="140" as="geometry" />
        </mxCell>
        <mxCell id="0OY0FQUfaeUlnDmc-vhA-63" value="" style="endArrow=classic;html=1;rounded=0;exitX=1;exitY=1;exitDx=0;exitDy=0;entryX=0;entryY=1;entryDx=0;entryDy=0;" edge="1" parent="1">
          <mxGeometry width="50" height="50" relative="1" as="geometry">
            <mxPoint x="440" y="290.0000000000001" as="sourcePoint" />
            <mxPoint x="400" y="290.0000000000001" as="targetPoint" />
          </mxGeometry>
        </mxCell>
        <mxCell id="0OY0FQUfaeUlnDmc-vhA-68" value="" style="shape=partialRectangle;whiteSpace=wrap;html=1;top=0;left=0;fillColor=none;" vertex="1" parent="1">
          <mxGeometry x="220" y="150" width="40" height="80" as="geometry" />
        </mxCell>
        <mxCell id="0OY0FQUfaeUlnDmc-vhA-72" value="" style="shape=partialRectangle;whiteSpace=wrap;html=1;bottom=0;right=0;fillColor=none;" vertex="1" parent="1">
          <mxGeometry x="70" y="230" width="150" height="60" as="geometry" />
        </mxCell>
        <mxCell id="0OY0FQUfaeUlnDmc-vhA-73" value="" style="endArrow=classic;html=1;rounded=0;" edge="1" parent="1">
          <mxGeometry width="50" height="50" relative="1" as="geometry">
            <mxPoint x="70" y="291" as="sourcePoint" />
            <mxPoint x="160" y="290" as="targetPoint" />
          </mxGeometry>
        </mxCell>
      </root>
    </mxGraphModel>
  </diagram>
</mxfile>
